<?xml version="1.0" encoding="iso-8859-1"?>
<!-- Generator: Adobe Illustrator 19.0.0, SVG Export Plug-In . SVG Version: 6.00 Build 0)  -->
<svg version="1.1" id="Capa_1" xmlns="http://www.w3.org/2000/svg" xmlns:xlink="http://www.w3.org/1999/xlink" x="0px" y="0px"
	 viewBox="0 0 512 512" style="enable-background:new 0 0 512 512;" xml:space="preserve">
<g>
	<g>
		<path d="M492.498,89.042H273.501c-4.142,0-7.5,3.358-7.5,7.5s3.358,7.5,7.5,7.5h218.998c2.482,0,4.5,2.019,4.5,4.5v198.071
			c0,4.142,3.359,7.5,7.5,7.5c4.142,0,7.5-3.358,7.499-7.5V108.544C511.999,97.791,503.253,89.042,492.498,89.042z"/>
	</g>
</g>
<g>
	<g>
		<path d="M504.5,334.117c-4.141,0-7.5,3.358-7.5,7.5v61.839c0,2.481-2.018,4.5-4.5,4.5H19.501c-2.48,0-4.5-2.019-4.5-4.5V108.544
			c0-2.481,2.02-4.5,4.5-4.5h218.997c4.143,0,7.5-3.358,7.5-7.5s-3.357-7.5-7.5-7.5H19.501C8.749,89.042,0,97.791,0,108.544v294.913
			c0,10.753,8.749,19.501,19.501,19.501h472.998c10.755,0,19.501-8.749,19.501-19.501v-61.839
			C512,337.475,508.643,334.117,504.5,334.117z"/>
	</g>
</g>
<g>
	<g>
		<path d="M303.86,280.787c-27.885,0-50.569,22.685-50.569,50.568c0,27.886,22.685,50.571,50.569,50.571
			c27.886,0,50.571-22.686,50.571-50.571C354.431,303.471,331.746,280.787,303.86,280.787z M303.859,375.166
			c-22.396,0-41.22-17.075-43.553-39.166c7.125,0.087,14.205,0.288,21.085,0.594c2.342,10.572,11.67,18.123,22.624,18.123
			c9.443,0,17.918-5.741,21.462-14.41c7.181,0.926,14.059,1.993,20.484,3.178C340.593,362.218,323.503,375.166,303.859,375.166z
			 M304.013,319.387c-0.001,0-0.001,0-0.002,0c-5.307,0-9.674,3.082-11.416,7.948h-2.578c1.818-6.141,7.447-10.435,13.999-10.435
			c6.552,0,12.183,4.293,14,10.435h-2.577C313.698,322.47,309.329,319.388,304.013,319.387z M307.804,331.53
			c0,2.088-1.699,3.787-3.787,3.787c-2.087,0-3.785-1.699-3.785-3.787c0-2.088,1.698-3.787,3.785-3.787
			C306.105,327.743,307.804,329.442,307.804,331.53z M292.596,335.723c1.743,4.867,6.11,7.951,11.42,7.951c0.001,0,0.002,0,0.004,0
			c5.311-0.001,9.68-3.084,11.42-7.951h2.579c-1.817,6.141-7.448,10.436-14.002,10.436c-6.552,0-12.183-4.294-14-10.436H292.596z
			 M327.088,333.828c0.077-0.771,0.116-1.539,0.116-2.299c0-12.784-10.403-23.185-23.187-23.185
			c-12.193,0-22.255,9.511-23.121,21.503c-6.923-0.319-13.899-0.526-20.78-0.618c1.117-23.12,20.434-41.686,43.746-41.686
			c24.157,0,43.812,19.653,43.812,43.812c0,1.853-0.122,3.734-0.365,5.613C340.939,335.804,334.151,334.75,327.088,333.828z"/>
	</g>
</g>
<g>
	<g>
		<path d="M251.406,317.27c-0.002-0.002-0.004-0.005-0.006-0.007c-0.229-0.246-0.688-0.671-2.041-1.511
			c-0.237-0.147-0.511-0.226-0.79-0.226l-19.359-0.016l14.367-12.794c0.619-0.551,0.674-1.498,0.124-2.117l-2.144-2.409
			c-14.396-16.16-36.012-21.375-56.415-13.605c-20.147,7.672-32.663,25.69-32.663,47.022c0,27.841,22.838,50.49,50.909,50.49
			c28.072,0,50.91-22.649,50.91-50.49C254.297,331.151,254.264,320.395,251.406,317.27z M159.105,331.606
			c0-18.429,10.799-34.042,28.181-40.746c5.511-2.126,11.13-3.162,16.636-3.162c11.681,0,22.853,4.667,31.391,13.508l-15.08,13.426
			c-7.342-7.089-17.935-8.789-27.387-4.274c-9.144,4.364-14.324,13.321-13.507,23.11c-6.944,0.865-13.641,1.855-19.945,2.95
			C159.245,334.952,159.105,333.162,159.105,331.606z M199.184,345.634h14.209c-5.532,3.865-11.97,3.576-16.596,1.748
			c-6.727-2.66-10.905-8.706-10.905-15.775c0-6.565,3.598-12.258,9.626-15.223c2.54-1.25,5.253-1.865,7.943-1.865
			c1.976,0,3.939,0.332,5.812,0.989h-10.089c-0.828,0-1.5,0.672-1.5,1.5v27.126C197.684,344.962,198.356,345.634,199.184,345.634z
			 M203.387,375.471c-20.153,0-37.642-13.493-42.772-32.521c6.388-1.118,13.17-2.119,20.2-2.981
			c3.323,8.685,11.404,14.628,20.917,15.271c10.123,0.69,19.226-4.711,23.739-14.082c0.224-0.465,0.193-1.012-0.081-1.448
			c-0.274-0.438-0.755-0.702-1.271-0.702h-19.808v-1.344c13.781-1.038,28.273-1.61,43.132-1.702
			C245.218,358.243,226.173,375.471,203.387,375.471z M204.311,330.974v-8.838l42.338-0.001c0.317,1.422,0.767,4.086,0.935,7.053
			C232.989,329.289,218.448,329.888,204.311,330.974z"/>
	</g>
</g>
<g>
	<g>
		<path d="M128.656,208.171c-1.29-6.925-10.054-11.099-19.278-6.841c-1.637,0.756-0.89,1.873,1.213,9.078l4.987,16.034
			c0.152,0.487,0.526,0.875,1.008,1.044c0.175,0.062,0.355,0.092,0.536,0.092c0.317,0,0.633-0.094,0.903-0.276
			C124.265,223.091,130.408,217.527,128.656,208.171z M119.181,219.48c-3.223-10.516-1.322-4.098-4.322-14.146
			c2.093-0.375,4.031-0.184,5.569,0.558c0.901,0.428,2.461,1.426,2.802,3.305C123.981,213.208,122.769,216.283,119.181,219.48z"/>
	</g>
</g>
<g>
	<g>
		<path d="M254.472,197.347c-4.89,5.37-4.422,13.658,0.905,18.468c0.341,0.32,0.692,0.513,1.186,0.513c0.025,0,0.052,0,0.078-0.002
			c1-0.047,0.043,0.705,16.224-17.814C275.592,195.401,262.254,188.73,254.472,197.347z M256.779,210.227
			c-3.81-6.929,3.082-14.758,10.397-11.981L256.779,210.227z"/>
	</g>
</g>
<g>
	<g>
		<path d="M383.165,219.296c-4.137,5.245-13.736,2.476-13.442-4.131c0.12-3.003,2.205-3.588,0.982-5.101
			c-0.449-0.556-1.211-0.751-1.869-0.48c-11.836,4.843-7.897,21.581,5.092,21.581c6.531,0,11.743-4.631,12.118-10.772
			C386.143,218.815,384.135,218.057,383.165,219.296z"/>
	</g>
</g>
<g>
	<g>
		<path d="M177.958,224.373c-0.667-0.225-1.404,0.005-1.82,0.575c-1.379,1.878-3.695,2.999-6.198,2.999
			c-4.076,0-7.393-2.952-7.393-6.58c0-1.13,0.322-2.241,0.931-3.215c0.379-0.606,0.314-1.39-0.158-1.926
			c-0.475-0.536-1.242-0.697-1.892-0.396c-11.393,5.285-7.238,21.347,5.429,21.347c6.712,0,12.071-4.938,12.2-11.24
			C179.07,225.232,178.625,224.599,177.958,224.373z"/>
	</g>
</g>
<g>
	<g>
		<path d="M456.899,191.791c-30.438-7.398-28.928-7.302-29.822-6.762c-0.909,0.551-0.683,0.805-3.379,11.912l-2.586-12.79
			c-0.129-0.628-0.613-1.121-1.238-1.258c-36.626-8.063-34.869-8.026-35.811-7.256c-0.381,0.311-0.602,0.779-0.596,1.274
			c0.238,18.699-0.177,18.7,1.486,19.071l4.398,0.984l-0.408,3.747c-1-0.42-5.423-3.156-12.874-3.156
			c-3.74,0-7.482,0.698-11.132,2.076c-4.809,1.841-6.578,3.572-7.578,4.099l-5.436-34.31c-0.123-0.785-0.799-1.362-1.596-1.362
			h-22.163c-1.683,0-1.642,1.642-2.053,4.101c-26.26,0-26.139-0.508-26.441,1.355l-2.773,16.981l-2.178-2.691
			c-6.289-7.724-15.439-12.097-25.764-12.312l20.692-11.123c0.847-0.457,1.104-1.537,0.576-2.322
			c-14.454-21.572-13.486-20.575-14.596-20.644c-0.482-0.03-0.99,0.173-1.32,0.554c-27.683,31.897-26.989,30.322-25.798,31.774
			l3.976,4.848c-4.319,1.765-8.151,4.203-11.392,7.247l-22.498-19.964c-0.372-0.329-0.876-0.471-1.365-0.38
			c-0.489,0.09-0.91,0.4-1.141,0.842l-7.45,14.281l0.276-13.226c0.011-0.521-0.23-1.017-0.648-1.329
			c-0.419-0.312-0.962-0.402-1.458-0.244c-36.729,11.735-35.464,10.853-35.384,12.563l0.811,16.974
			c0.023,0.486,0.265,0.936,0.655,1.225c0.394,0.289,0.892,0.385,1.365,0.263l4.469-1.159l0.945,10.237
			c-9.246-4.154-21.208-3.005-30.981,4.092c7.54-33.412-38.424-55.961-89.383-23.483l-4.69,2.973
			c-0.737,0.468-0.971,1.436-0.525,2.189L68.186,215.5c0.807,1.366,1.956,3.306,2.698,4.554c0.428,0.72,1.334,0.991,2.089,0.631
			l5.637-2.709l30.085,67.129c0.267,0.595,0.853,0.956,1.475,0.956c0.163,0,0.329-0.025,0.492-0.077l25.205-8.068
			c0.817-0.262,1.287-1.116,1.07-1.946l-9.41-36.151c2.301-1.703,4.476-3.53,6.466-5.431c-3.392,27.91,29.289,40.727,50.205,20.295
			c0.922,9.932,0.508,12.399,2.829,12.05l23.452-3.454c0.795-0.116,1.382-0.799,1.381-1.601l-0.04-22.386
			c57.274,28.306,53.568,26.84,54.659,26.162c0.475-0.295,0.763-0.814,0.763-1.373V240.16c7.139-0.6,16.021-3.347,22.739-7.375
			l0.002-0.001c-1.956,11.987-2.977,14.14-0.719,14.497c28.299,4.455,27.031,4.524,27.877,3.906
			c0.844-0.62,0.627-0.961,2.035-10.208c6.871,12.692,6.494,12.587,7.789,12.583c0.598-0.006,1.145-0.341,1.42-0.872l3.367-6.486
			c1.701,14.72,1.348,15.024,2.93,15.303l30.463,5.372c0.094,0.017,0.188,0.024,0.281,0.024c0,0,0.014,0,0.02,0
			c0.895,0,1.617-0.723,1.617-1.616c0-0.178-0.029-0.349-0.082-0.508l-1.402-8.908h0.002c5.774,0.652,11.932-0.481,17.524-3.334
			l-1.176,10.568c-0.096,0.868,0.516,1.656,1.381,1.778l20.993,2.962c0.153,8.352-0.16,9.142,1.281,9.596l20.884,6.555
			c0.846,0.265,1.74-0.196,2.018-1.033l29.559-89.092C458.347,192.984,457.822,192.014,456.899,191.791z M295.905,196.523
			l-1.877,11.626l-4.897-4.41L295.905,196.523z M274.496,150.649l8.206,11.15l-23.467,11.635l-1.619-2.464L274.496,150.649z
			 M120.082,236.011c-0.587,0.378-0.866,1.091-0.69,1.767l9.066,34.782l-15.155,4.842l-30.402-67.898
			c-0.18-0.402-0.517-0.713-0.931-0.861c-0.177-0.063-0.36-0.095-0.545-0.095c-0.248,0-0.494,0.057-0.72,0.17
			c-1.031,0.514-2.26,1.111-3.541,1.734l-2.641,1.289l-11.261-19.023c26.213-16.741,66.666-22.435,77.372,2.338
			C145.988,207.429,137.151,225.036,120.082,236.011z M170.709,255.698c-13.53,5.73-26.417-0.41-29.816-12.481
			c-3.395-12.042,4.344-26.362,17.243-31.918c3.4-1.436,6.858-2.164,10.277-2.164c4.389,0,8.496,1.215,11.88,3.513
			C195.19,222.753,189.487,247.617,170.709,255.698z M206.081,229.382c-1.071,0.665-0.771-0.745-0.675,27.572l-14.225,1.939
			l-0.991-11.878c6.95-11.917,6.505-26.614-3.036-36.011c-1.953-23.192-1.556-22.786-2.556-23.493
			c-0.389-0.275-0.878-0.367-1.34-0.246l-4.531,1.176l-0.282-6.123l22.843-6.801c1.223,20.554,0.831,20.023,2.297,20.444
			c0.656,0.188,1.364-0.058,1.762-0.616l14.172-19.911l16.452,15.666c-23.025,24.258-22.031,22.77-21.767,23.965
			c0.115,0.523,0.484,0.956,0.983,1.154l19.39,7.669c4.513,8.552,13.648,15.057,25.722,16.251l0.003,15.502
			C203.645,227.303,207.18,228.702,206.081,229.382z M231.748,215.793l-7.649-2.951l7.13-6.93
			C230.918,209.157,231.092,212.481,231.748,215.793z M291.6,222.991c-16.076,13.297-43.556,14.776-51.573-3.995
			c-0.495-1.12-0.878-2.265-1.17-3.494c-6.904-29.427,33.624-43.784,50.413-23.173c-21.59,22.981-21.181,21.934-20.417,23.348
			c0.671,1.238,1.954,0.813,3.367,0.474c4.934-1.203,7.957-3.588,11.192-7.376l11.921,10.737
			C294.149,220.736,292.891,221.909,291.6,222.991z M340.173,255.526l-4.074-26.979c-0.246-1.63-2.511-1.881-3.105-0.341
			l-4.844,12.524c-9.073-19.568-8.5-19.265-10.095-19.049c-1.621,0.225-1.169,0.068-4.742,22.646l-17.583-3.06l2.473-14.704v-0.001
			c0.664-0.623,1.318-1.248,1.961-1.91l4.525-4.658c0.307-0.316,0.471-0.742,0.455-1.183c-0.014-0.439-0.209-0.854-0.535-1.147
			l-4.285-3.837l5.883-35.013h17.737l2.822,15.415c0.143,0.768,0.811,1.324,1.59,1.324h0.004c0.783-0.002,1.451-0.564,1.588-1.334
			l3.412-19.257h12.687l5.268,34.223c-13.463,15.332-9.977,35.897,4.93,43.855c0.525,0.265,1.225,0.607,1.967,0.905l0.672,4.435
			L340.173,255.526z M357.018,246.246c-10.818-7.828-10.44-24.461,1.459-35.286c13.861-12.43,33.32-7.862,36.82,7.173
			C400.24,238.55,374.053,258.362,357.018,246.246z M423.571,275.877l-12.999-3.871l-0.752-31.724
			c-0.046-1.946-2.872-2.137-3.207-0.243l-3.713,21.01l-14.185-2.263c0-0.002,1.014-10.645,1.014-10.647
			c14.639-12.364,16.225-32.888,4.164-43.904c1.094-11.465,1.635-12.44-0.127-12.909l-4.039-1.073l0.359-6.705l24.436,4.913
			c7.217,34.228,6.519,33.222,8.297,33.249c0.709,0.019,1.418-0.504,1.594-1.237l6.75-27.981l18.585,4.106L423.571,275.877z"/>
	</g>
</g>
<g>
</g>
<g>
</g>
<g>
</g>
<g>
</g>
<g>
</g>
<g>
</g>
<g>
</g>
<g>
</g>
<g>
</g>
<g>
</g>
<g>
</g>
<g>
</g>
<g>
</g>
<g>
</g>
<g>
</g>
</svg>
